<svg id="Layer_1" data-name="Layer 1" xmlns="http://www.w3.org/2000/svg" viewBox="0 0 995.61 984.88"><path d="M53.93,917.85,478,495,53.87,71.85Z"/><path d="M82.82,53.85,497,470l416-416.56Z"/><path d="M946.08,71.36a5.27,5.27,0,0,1-.57.14c-.76.11-1.47.22-2.16.28L742.16,272.45q-.1,206.57-.2,413.12L945.89,481.45Z"/><path d="M709.56,680.57,709.32,305Q615.92,398.75,522.5,492.48Z"/><path d="M703.63,719.62,499.14,515.89,295.28,720.13l204,203.6Z"/><path d="M944.33,523.27,529.56,935.68,944.33,935Z"/><path d="M269.61,743.38l-192,191.24h384Z"/><path d="M37.13,21.76c.8.85,1.59,1.71,2.39,2.57H957.64C967.57,16.55,977.69,9,987.85,1.58L990,0H15.85C23.22,7,30.22,14.34,37.13,21.76Z"/><path d="M24.59,32.79c-2.36-2.16-4.73-4.32-7.08-6.49C11.53,20.79,5.72,15.13,0,9.36V972.52c8.05-7,16.27-13.81,24.59-20.51Z"/><path d="M994.84,13.32C986.52,20,978.81,27.48,971,34.8V948.57c1,.95,2,1.84,2.63,2.57,2.21,2.33,4.36,4.71,6.58,7q7.59,7.92,15.38,15.64V12.7Z"/><path d="M966.94,968.48a103.76,103.76,0,0,1-7.26-7.93H40.17c-9.83,7.92-19.46,16.07-29,24.33H983.23C977.75,979.46,972.3,974,966.94,968.48Z"/></svg>